{"title":"Assassination 2011.PVPRip.x264.Feel-Free","uid":6591925,"size":1296234271,"categoryP":"video","categoryS":"movies","magnet":"?xt=urn:btih:87850f0bfdb640256a49ab3a8c5ec8200f4a1f80&amp;dn=Assassination+2011.PVPRip.x264.Feel-Free&amp;tr=udp%3A%2F%2Ftracker.openbittorrent.com%3A80&amp;tr=udp%3A%2F%2Fopen.demonii.com%3A1337&amp;tr=udp%3A%2F%2Ftracker.coppersurfer.tk%3A6969&amp;tr=udp%3A%2F%2Fexodus.desync.com%3A6969","seeders":0,"leechers":1,"uploader":".BONE.","files":8,"time":1312869080,"description":"Genre:Action | Thriller\nLanguage:English\n &lt;a href=&quot;\nhttp://www.imdb.com/title/tt1436568/&quot; rel=&quot;nofollow&quot; target=&quot;_NEW&quot;&gt;\nhttp://www.imdb.com/title/tt1436568/&lt;/a&gt;\n\nSource:PPVRip Thanks!\n\nFormat : MPEG-4\nFormat profile : Base Media\nCodec ID : isom\nFile size : 1.21 GiB\nDuration : 1h 40mn\nOverall bit rate : 1 725 Kbps\n\nVideo\nID : 1\nFormat : AVC\nFormat/Info : Advanced Video Codec\nFormat profile : &lt;a class=&quot;__cf_email__&quot; href=&quot;/cdn-cgi/l/email-protection&quot; data-cfemail=&quot;1f577678775f532b312e&quot;&gt;[email&amp;#160;protected]&lt;/a&gt;&lt;script cf-hash='f9e31' type=&quot;text/javascript&quot;&gt;\n/* &lt;![CDATA[ */!function(){try{var t=&quot;currentScript&quot;in document?document.currentScript:function(){for(var t=document.getElementsByTagName(&quot;script&quot;),e=t.length;e--;)if(t[e].getAttribute(&quot;cf-hash&quot;))return t[e]}();if(t&amp;&amp;t.previousSibling){var e,r,n,i,c=t.previousSibling,a=c.getAttribute(&quot;data-cfemail&quot;);if(a){for(e=&quot;&quot;,r=parseInt(a.substr(0,2),16),n=2;a.length-n;n+=2)i=parseInt(a.substr(n,2),16)^r,e+=String.fromCharCode(i);e=document.createTextNode(e),c.parentNode.replaceChild(e,c)}}}catch(u){}}();/* ]]&gt; */&lt;/script&gt;\nFormat settings, CABAC : Yes\nFormat settings, ReFrames : 3 frames\nCodec ID : avc1\nCodec ID/Info : Advanced Video Coding\nDuration : 1h 40mn\nBit rate mode : Variable\nBit rate : 1 500 Kbps\nMaximum bit rate : 7 428 Kbps\nWidth : 640 pixels\nHeight : 472 pixels\nDisplay aspect ratio : 4:3\nFrame rate mode : Constant\nFrame rate : 23.976 fps\nColor space : YUV\nChroma subsampling : 4:2:0\nBit depth : 8 bits\nScan type : Progressive\nBits/(Pixel*Frame) : 0.207\nStream size : 1.05 GiB (87%)\nWriting library : x264\n\nAudio\nID : 2\nFormat : AAC\nFormat/Info : Advanced Audio Codec\nFormat version : Version 4\nFormat profile : LC\nFormat settings, SBR : No\nCodec ID : 40\nDuration : 1h 40mn\nBit rate mode : Variable\nBit rate : 224 Kbps\nMaximum bit rate : 280 Kbps\nChannel(s) : 2 channels\nChannel positions : Front: L R\nSampling rate : 48.0 KHz\nStream size : 160 MiB (13%)\n\n\nPlot:\nRival assassins -- each of whom are masters of their respective weapons -- form an uneasy alliance in their mission to take down a DEA-backed drug cartel\n &lt;a href=&quot;\nhttp://www.pix2links.com/images/94311226988162444195.png&quot; rel=&quot;nofollow&quot; target=&quot;_NEW&quot;&gt;\nhttp://www.pix2links.com/images/94311226988162444195.png&lt;/a&gt;\n &lt;a href=&quot;\nhttp://www.pix2links.com/images/75014526109906428235.png&quot; rel=&quot;nofollow&quot; target=&quot;_NEW&quot;&gt;\nhttp://www.pix2links.com/images/75014526109906428235.png&lt;/a&gt;\n &lt;a href=&quot;\nhttp://www.pix2links.com/images/45485206311191492795.png&quot; rel=&quot;nofollow&quot; target=&quot;_NEW&quot;&gt;\nhttp://www.pix2links.com/images/45485206311191492795.png&lt;/a&gt;\n &lt;a href=&quot;\nhttp://www.pix2links.com/images/56123496460479487252.png&quot; rel=&quot;nofollow&quot; target=&quot;_NEW&quot;&gt;\nhttp://www.pix2links.com/images/56123496460479487252.png&lt;/a&gt;\n","torrent":{"xt":"urn:btih:87850f0bfdb640256a49ab3a8c5ec8200f4a1f80","amp;dn":"Assassination+2011.PVPRip.x264.Feel-Free","amp;tr":["udp%3A%2F%2Ftracker.openbittorrent.com%3A80","udp%3A%2F%2Fopen.demonii.com%3A1337","udp%3A%2F%2Ftracker.coppersurfer.tk%3A6969","udp%3A%2F%2Fexodus.desync.com%3A6969"],"infoHash":"87850f0bfdb640256a49ab3a8c5ec8200f4a1f80","infoHashBuffer":{"type":"Buffer","data":[135,133,15,11,253,182,64,37,106,73,171,58,140,94,200,32,15,74,31,128]},"announce":[],"urlList":[]}}